<?xml version="1.0" encoding="UTF-8"?>
<svg id="uuid-d94eb057-efd7-4ab6-bdc4-1d2db48bbb43" data-name="Layer 1" xmlns="http://www.w3.org/2000/svg" viewBox="0 0 1200 1200">
  <defs>
    <style>
      .uuid-ae469ce2-3f1d-4e6a-9498-583b285e7677, .uuid-b0be2eca-0c6a-415e-9a96-1d8a8d3d930c {
        stroke-width: 0px;
      }

      .uuid-b0be2eca-0c6a-415e-9a96-1d8a8d3d930c {
        fill: #fff;
        fill-rule: evenodd;
      }
    </style>
  </defs>
  <polygon class="uuid-b0be2eca-0c6a-415e-9a96-1d8a8d3d930c" points="0 0 1200 0 1200 1200 0 1200 0 0 0 0"/>
  <path class="uuid-ae469ce2-3f1d-4e6a-9498-583b285e7677" d="m612.07,479.23l102.95,28.42c.96.27,1.82.73,2.54,1.33l48.5-56.24-12.67-21.12-141.32,47.62h0Zm-65.49,248.9v26.97c5.61-1.3,10.62-4.15,14.56-8.08,5.47-5.47,8.86-13.04,8.86-21.39,0-6.69-2.17-12.87-5.84-17.87l-17.58,20.38h0Zm0,40.89v28.37h20.09c3.78,0,6.84,3.06,6.84,6.84s-3.06,6.84-6.84,6.84h-51.51v-13.68h17.75v-28.37c-9.39-1.47-17.8-5.91-24.22-12.34-6.82-6.82-11.41-15.88-12.58-25.99l-35.99-1.44c-3.29,43.64-22.35,82.89-51.51,112.04-32.14,32.14-76.53,52.02-125.57,52.02s-93.44-19.88-125.57-52.01c-32.13-32.14-52.01-76.53-52.01-125.57s19.88-93.43,52.02-125.57c32.14-32.14,76.53-52.02,125.57-52.02s93.43,19.88,125.57,52.02c13.49,13.49,24.82,29.14,33.43,46.39l251.8-120.6-105.8-29.21-159.28,7.11,3.82,7.46,15.14,29.59c1.71,3.35.38,7.45-2.96,9.16-3.35,1.71-7.45.38-9.16-2.96l-14.17-27.69-.08-.15-1.27-2.49-8.11-15.84c-.14-.24-.27-.5-.38-.76l-34.28-67.04h-46.95c-3.78,0-6.84-3.06-6.84-6.84s3.06-6.84,6.84-6.84h90.93c6.6,0,13.09,1.32,19.11,3.82l.35.16c5.86,2.48,11.24,6.08,15.82,10.66l2.08,2.08c2.67,2.65,2.68,6.97.03,9.64-2.65,2.67-6.97,2.68-9.64.03l-2.08-2.08-.03-.03c-3.32-3.32-7.21-5.93-11.44-7.72l-.33-.13c-4.34-1.8-9.05-2.75-13.88-2.75h-28.68l29.34,57.38,165.62-7.39,163.44-55.07-23.78-44.74c-3.85-7.26-5.25-15.33-4.31-23.11.94-7.8,4.21-15.32,9.68-21.45l2.18-2.44-2.59-3.14-17.68,14.88c.47,1.75.73,3.6.73,5.5,0,5.82-2.36,11.09-6.18,14.91-.15.15-.3.28-.45.41-3.79,3.58-8.88,5.76-14.46,5.76s-11.09-2.36-14.91-6.18c-.15-.15-.28-.3-.41-.45-3.58-3.79-5.76-8.88-5.76-14.46s2.37-11.06,6.19-14.89h-.01c3.81-3.83,9.09-6.19,14.91-6.19,4.74,0,9.13,1.59,12.67,4.26l21.63-18.2c.1-.09.19-.17.29-.25,2.9-2.39,7.2-1.97,9.59.94l10.36,12.59c2.43,2.55,2.54,6.58.16,9.25l-6.06,6.79c-3.57,4-5.7,8.9-6.31,13.98-.61,5.09.3,10.36,2.81,15.1l100.42,188.9c23.36-11.31,49.58-17.66,77.28-17.66,49.04,0,93.43,19.88,125.57,52.02,32.14,32.14,52.02,76.54,52.02,125.57s-19.88,93.44-52.01,125.57c-32.14,32.14-76.53,52.01-125.57,52.01s-93.44-19.88-125.57-52.02c-32.14-32.14-52.02-76.53-52.02-125.57s19.88-93.43,52.02-125.57c10.79-10.79,22.96-20.2,36.23-27.93l-52.62-98.98-201.76,233.98c6.5,7.66,10.43,17.58,10.43,28.41,0,12.13-4.92,23.11-12.87,31.06-6.42,6.43-14.83,10.87-24.22,12.34h0Zm-13.68-13.92v-22.93l-22.89-.92c1.15,6.1,4.12,11.55,8.33,15.76,3.93,3.93,8.94,6.79,14.56,8.08h0Zm-62.71-137.89c-3.42,1.58-7.48.08-9.05-3.34-1.58-3.42-.08-7.48,3.34-9.05l24.29-11.29c3.42-1.58,7.48-.08,9.05,3.34,1.58,3.42.08,7.48-3.34,9.05l-24.29,11.29h0Zm-10.89-18.25c-3.42,1.58-7.48.08-9.05-3.34-1.58-3.42-.08-7.48,3.34-9.05l24.29-11.29c3.42-1.58,7.48-.08,9.05,3.34,1.58,3.42.08,7.48-3.34,9.05l-24.29,11.29h0Zm-8.8-18.24c-3.42,1.58-7.48.08-9.05-3.34-1.58-3.42-.08-7.48,3.34-9.05l24.29-11.29c3.42-1.58,7.48-.08,9.05,3.34,1.58,3.42.08,7.48-3.34,9.05l-24.29,11.29h0Zm-8.52-18.25c-3.42,1.58-7.48.08-9.05-3.34-1.58-3.42-.08-7.48,3.34-9.05l24.29-11.29c3.42-1.58,7.48-.08,9.05,3.34,1.58,3.42.08,7.48-3.34,9.05l-24.29,11.29h0Zm257.38-213.7c1.34-1.34,2.17-3.19,2.17-5.24s-.83-3.9-2.17-5.24h.01s-.01-.03-.01-.03c-1.32-1.32-3.18-2.14-5.24-2.14s-3.9.83-5.24,2.17h-.01s-.01,0-.01,0c-1.32,1.32-2.14,3.18-2.14,5.24,0,1.94.72,3.68,1.9,4.99l.27.25c1.34,1.34,3.19,2.17,5.24,2.17,1.94,0,3.69-.72,4.99-1.9l.25-.27h0Zm266.67,366.96c0,13.55-5.49,25.82-14.37,34.7-8.88,8.88-21.15,14.37-34.7,14.37s-25.81-5.49-34.69-14.37c-8.88-8.88-14.37-21.15-14.37-34.7s5.49-25.82,14.37-34.69c1.81-1.81,3.77-3.49,5.85-5l-33-62.07c-8.14,4.96-15.65,10.87-22.35,17.57-21.54,21.54-34.87,51.31-34.87,84.19s13.33,62.65,34.87,84.2c21.54,21.54,51.31,34.87,84.19,34.87s62.65-13.33,84.19-34.87c21.54-21.55,34.87-51.31,34.87-84.19s-13.33-62.65-34.87-84.19c-21.54-21.54-51.31-34.87-84.19-34.87-17.77,0-34.63,3.89-49.78,10.87l33,62.07c5.23-1.91,10.89-2.95,16.78-2.95,13.55,0,25.82,5.49,34.69,14.37,8.88,8.88,14.37,21.15,14.37,34.7h0Zm-24.04,25.03c6.4-6.4,10.36-15.25,10.36-25.03s-3.96-18.62-10.36-25.03c-6.4-6.4-15.25-10.36-25.03-10.36-3.57,0-7.02.53-10.27,1.51l16.31,30.67c1.77,3.33.5,7.47-2.83,9.24-3.33,1.77-7.47.5-9.24-2.83l-16.3-30.66c-.94.76-1.84,1.57-2.69,2.43-6.4,6.4-10.36,15.25-10.36,25.03s3.96,18.63,10.36,25.03c6.4,6.4,15.25,10.36,25.03,10.36s18.63-3.96,25.03-10.36h0Zm-601.22-16.27c-1.81,10.04-6.67,19.02-13.59,25.94-8.88,8.88-21.15,14.37-34.7,14.37s-25.82-5.49-34.69-14.37-14.37-21.15-14.37-34.7,5.49-25.81,14.37-34.7c8.88-8.88,21.15-14.37,34.69-14.37s25.82,5.49,34.69,14.37c2.3,2.3,4.38,4.84,6.19,7.56l55.86-26.75c-5.72-11.25-13.17-21.47-22.01-30.3-21.54-21.54-51.31-34.87-84.19-34.87s-62.65,13.33-84.19,34.87c-21.54,21.54-34.87,51.31-34.87,84.19s13.33,62.65,34.87,84.19c21.54,21.55,51.31,34.87,84.19,34.87s62.65-13.33,84.19-34.87c19.07-19.07,31.7-44.59,34.35-73l-60.8-2.44h0Zm-1.51-23.61c1.01,3.2,1.71,6.54,2.05,9.99l60.76,2.43c-.27-13.68-2.86-26.79-7.37-38.97l-55.44,26.55h0Zm-21.75,39.88c4.55-4.55,7.87-10.35,9.41-16.83l-34.7-1.39h0c-2.44-.1-4.75-1.52-5.88-3.87-1.62-3.39-.19-7.46,3.21-9.08l31.32-15c-1.03-1.37-2.15-2.67-3.36-3.88-6.4-6.4-15.25-10.36-25.03-10.36s-18.62,3.96-25.03,10.36c-6.4,6.4-10.36,15.25-10.36,25.03s3.96,18.63,10.36,25.03c6.4,6.4,15.25,10.36,25.03,10.36s18.62-3.96,25.03-10.36h0Zm9.95-30.45c-.18-1.17-.41-2.32-.71-3.44l-6.58,3.15,7.29.29h0Zm120.18-61.34c8.36,20.59,12.97,43.09,12.98,66.67l36.03,1.44c1.72-8.7,6-16.48,12.04-22.51,1.62-1.62,3.37-3.11,5.22-4.47l-29.96-58.52-36.31,17.39h0Zm-1.2,79.75l-31.17-1.25c-2.8,31.97-16.94,60.69-38.37,82.12-24.02,24.02-57.21,38.88-93.86,38.88s-69.84-14.86-93.86-38.88c-24.02-24.02-38.88-57.21-38.88-93.86s14.86-69.84,38.88-93.86c24.02-24.02,57.21-38.88,93.86-38.88s69.84,14.86,93.86,38.88c9.92,9.92,18.28,21.41,24.68,34.06l28.13-13.47c-7.93-15.85-18.36-30.23-30.76-42.64-29.66-29.66-70.64-48.01-115.9-48.01s-86.24,18.35-115.9,48.01c-29.66,29.66-48.01,70.64-48.01,115.9s18.35,86.24,48.01,115.9c29.66,29.66,70.64,48.01,115.9,48.01s86.24-18.35,115.9-48.01c26.8-26.79,44.36-62.83,47.5-102.92h0Zm255.39-201.49l-205.6,98.47,29.79,58.19c4.32-1.42,8.93-2.19,13.72-2.19,8.51,0,16.45,2.42,23.18,6.61l138.91-161.08h0Zm-266.55,127.66l-28.2,13.5c5.4,14.15,8.46,29.46,8.68,45.45l31.18,1.25c-.08-21.27-4.21-41.58-11.66-60.2h0Zm75.28,62.75l17.81.71-8.12-15.86c-.66.55-1.29,1.14-1.9,1.74-3.66,3.66-6.39,8.26-7.79,13.4h0Zm30.63-4.12l12.65-14.66c-4.21-2.22-9-3.47-14.09-3.47-2.54,0-5.02.31-7.38.91l8.82,17.23h0Zm307.51-111.65l-14.65-27.56c-12.07,7.09-23.15,15.68-32.99,25.52-29.66,29.66-48.01,70.64-48.01,115.9s18.35,86.24,48.01,115.9c29.66,29.66,70.64,48.01,115.9,48.01s86.24-18.35,115.9-48.01c29.66-29.66,48.01-70.64,48.01-115.9s-18.35-86.24-48.01-115.9c-29.66-29.66-70.64-48.01-115.9-48.01-25.38,0-49.41,5.77-70.86,16.06l14.65,27.56c17.07-7.99,36.12-12.45,56.2-12.45,36.65,0,69.84,14.86,93.86,38.88,24.02,24.02,38.88,57.21,38.88,93.86s-14.86,69.84-38.88,93.86c-24.02,24.02-57.21,38.88-93.86,38.88s-69.84-14.86-93.86-38.88c-24.02-24.02-38.88-57.21-38.88-93.86s14.86-69.84,38.88-93.86c7.66-7.66,16.25-14.39,25.59-20h0Z"/>
</svg>